<svg xmlns="http://www.w3.org/2000/svg" viewBox="0 0 32 32" width="32" height="32">
  <defs>
    <linearGradient id="grad1" x1="0%" y1="0%" x2="100%" y2="100%">
      <stop offset="0%" style="stop-color:#4f46e5;stop-opacity:1" />
      <stop offset="100%" style="stop-color:#7c3aed;stop-opacity:1" />
    </linearGradient>
    <linearGradient id="grad2" x1="0%" y1="0%" x2="100%" y2="100%">
      <stop offset="0%" style="stop-color:#06b6d4;stop-opacity:1" />
      <stop offset="100%" style="stop-color:#0891b2;stop-opacity:1" />
    </linearGradient>
    <linearGradient id="grad3" x1="0%" y1="0%" x2="100%" y2="100%">
      <stop offset="0%" style="stop-color:#10b981;stop-opacity:1" />
      <stop offset="100%" style="stop-color:#059669;stop-opacity:1" />
    </linearGradient>
  </defs>
  
  <!-- Römische Säule -->
  <rect x="2" y="4" width="2" height="24" fill="#e5e7eb" rx="1"/>
  <rect x="2" y="3" width="2" height="2" fill="#d1d5db" rx="1"/>
  <rect x="2" y="27" width="2" height="2" fill="#d1d5db" rx="1"/>
  
  <!-- Gantt-Balken -->
  <rect x="6" y="7" width="18" height="3" fill="url(#grad1)" rx="1.5"/>
  <rect x="6" y="13" width="12" height="3" fill="url(#grad2)" rx="1.5"/>
  <rect x="6" y="19" width="9" height="3" fill="url(#grad3)" rx="1.5"/>
  
  <!-- Meilenstein -->
  <path d="M27,14.5 L29,16.5 L27,18.5 L25,16.5 Z" fill="#f59e0b"/>
  
  <!-- Verbindung -->
  <path d="M24 8.5 Q26 8.5 26 12 Q26 14.5 25 14.5" fill="none" stroke="#6b7280" stroke-width="1"/>
</svg>
