<svg xmlns="http://www.w3.org/2000/svg" viewBox="0 0 64 64" width="64" height="64">
  <defs>
    <linearGradient id="primaryGradient" x1="0%" y1="0%" x2="100%" y2="100%">
      <stop offset="0%" style="stop-color:#4f46e5;stop-opacity:1" />
      <stop offset="100%" style="stop-color:#7c3aed;stop-opacity:1" />
    </linearGradient>
    <linearGradient id="secondaryGradient" x1="0%" y1="0%" x2="100%" y2="100%">
      <stop offset="0%" style="stop-color:#06b6d4;stop-opacity:1" />
      <stop offset="100%" style="stop-color:#0891b2;stop-opacity:1" />
    </linearGradient>
    <linearGradient id="accentGradient" x1="0%" y1="0%" x2="100%" y2="100%">
      <stop offset="0%" style="stop-color:#10b981;stop-opacity:1" />
      <stop offset="100%" style="stop-color:#059669;stop-opacity:1" />
    </linearGradient>
  </defs>
  
  <!-- Römische Säule (subtil im Hintergrund) -->
  <rect x="4" y="8" width="3" height="48" fill="#e5e7eb" opacity="0.6" rx="1"/>
  <rect x="4" y="6" width="3" height="4" fill="#d1d5db" opacity="0.8" rx="1"/>
  <rect x="4" y="54" width="3" height="4" fill="#d1d5db" opacity="0.8" rx="1"/>
  
  <!-- Gantt-Balken (Hauptelemente) -->
  <!-- Balken 1 - Längster Balken -->
  <rect x="12" y="14" width="36" height="6" fill="url(#primaryGradient)" rx="3">
    <animate attributeName="width" values="0;36" dur="1.5s" begin="0s" fill="freeze"/>
  </rect>
  
  <!-- Balken 2 - Mittlerer Balken -->
  <rect x="12" y="26" width="24" fill="url(#secondaryGradient)" height="6" rx="3">
    <animate attributeName="width" values="0;24" dur="1.5s" begin="0.3s" fill="freeze"/>
  </rect>
  
  <!-- Balken 3 - Kurzer Balken -->
  <rect x="12" y="38" width="18" height="6" fill="url(#accentGradient)" rx="3">
    <animate attributeName="width" values="0;18" dur="1.5s" begin="0.6s" fill="freeze"/>
  </rect>
  
  <!-- Meilenstein (Diamant) -->
  <g transform="translate(54, 29)">
    <path d="M0,-4 L4,0 L0,4 L-4,0 Z" fill="#f59e0b" stroke="#d97706" stroke-width="1">
      <animateTransform attributeName="transform" type="scale" values="0;1.2;1" dur="0.8s" begin="1.2s" fill="freeze"/>
    </path>
  </g>
  
  <!-- Verbindungspfeile (Dependencies) -->
  <path d="M48 17 Q52 17 52 23 Q52 29 48 29" fill="none" stroke="#6b7280" stroke-width="1.5" opacity="0.7" marker-end="url(#arrowhead)">
    <animate attributeName="stroke-dasharray" values="0,100;100,0" dur="1s" begin="1.8s" fill="freeze"/>
  </path>
  
  <!-- Pfeilspitze Definition -->
  <defs>
    <marker id="arrowhead" markerWidth="10" markerHeight="7" refX="9" refY="3.5" orient="auto">
      <polygon points="0 0, 10 3.5, 0 7" fill="#6b7280" opacity="0.7"/>
    </marker>
  </defs>
  
  <!-- Zeitachse (subtil) -->
  <line x1="12" y1="50" x2="54" y2="50" stroke="#e5e7eb" stroke-width="1" opacity="0.8"/>
  <circle cx="20" cy="50" r="1" fill="#d1d5db"/>
  <circle cx="32" cy="50" r="1" fill="#d1d5db"/>
  <circle cx="44" cy="50" r="1" fill="#d1d5db"/>
</svg>
