<svg xmlns="http://www.w3.org/2000/svg" viewBox="0 0 24 24" width="24" height="24">
  <defs>
    <linearGradient id="primaryGrad" x1="0%" y1="0%" x2="100%" y2="100%">
      <stop offset="0%" style="stop-color:#4f46e5;stop-opacity:1" />
      <stop offset="100%" style="stop-color:#7c3aed;stop-opacity:1" />
    </linearGradient>
    <linearGradient id="secondaryGrad" x1="0%" y1="0%" x2="100%" y2="100%">
      <stop offset="0%" style="stop-color:#06b6d4;stop-opacity:1" />
      <stop offset="100%" style="stop-color:#0891b2;stop-opacity:1" />
    </linearGradient>
    <linearGradient id="accentGrad" x1="0%" y1="0%" x2="100%" y2="100%">
      <stop offset="0%" style="stop-color:#10b981;stop-opacity:1" />
      <stop offset="100%" style="stop-color:#059669;stop-opacity:1" />
    </linearGradient>
  </defs>
  
  <!-- Römische Säule -->
  <rect x="1" y="2" width="1.5" height="20" fill="#e5e7eb" rx="0.75"/>
  <rect x="1" y="1.5" width="1.5" height="1.5" fill="#d1d5db" rx="0.75"/>
  <rect x="1" y="21" width="1.5" height="1.5" fill="#d1d5db" rx="0.75"/>
  
  <!-- Gantt-Balken -->
  <rect x="4" y="5" width="14" height="2" fill="url(#primaryGrad)" rx="1"/>
  <rect x="4" y="9" width="10" height="2" fill="url(#secondaryGrad)" rx="1"/>
  <rect x="4" y="13" width="7" height="2" fill="url(#accentGrad)" rx="1"/>
  
  <!-- Meilenstein -->
  <path d="M20,9 L22,11 L20,13 L18,11 Z" fill="#f59e0b"/>
  
  <!-- Verbindung -->
  <path d="M18 6 Q19 6 19 8.5 Q19 11 18 11" fill="none" stroke="#6b7280" stroke-width="0.8"/>
</svg>
